<svg width="1280" height="620" viewBox="0 0 1280 620" fill="none" xmlns="http://www.w3.org/2000/svg">
  <rect width="1280" height="620" rx="36" fill="#F6F7FF"/>
  <rect x="56" y="48" width="1168" height="524" rx="30" fill="white" stroke="#E5E7F6" stroke-width="2"/>
  <text x="92" y="108" fill="#111827" font-family="Segoe UI, Microsoft YaHei, sans-serif" font-size="34" font-weight="700">AI 日志分析报告结构</text>
  <text x="92" y="148" fill="#6B7280" font-family="Segoe UI, Microsoft YaHei, sans-serif" font-size="18">AI 只接收结构化异常数据，输出必须通过 JSON Schema 校验后再渲染为 Markdown 报告</text>

  <defs>
    <marker id="arrow2" markerWidth="12" markerHeight="12" refX="10" refY="6" orient="auto" markerUnits="strokeWidth">
      <path d="M2 2L10 6L2 10" stroke="#8B8CF6" stroke-width="2" stroke-linecap="round" stroke-linejoin="round"/>
    </marker>
  </defs>

  <g font-family="Segoe UI, Microsoft YaHei, sans-serif">
    <rect x="90" y="220" width="250" height="120" rx="22" fill="#EEF0FF"/>
    <text x="215" y="260" text-anchor="middle" fill="#111827" font-size="22" font-weight="700">异常输入</text>
    <text x="215" y="292" text-anchor="middle" fill="#6B7280" font-size="16">anomalies-YYYY-MM-DD.json</text>
    <text x="215" y="318" text-anchor="middle" fill="#6B7280" font-size="16">severity / category / message</text>

    <rect x="396" y="220" width="250" height="120" rx="22" fill="#EEF0FF"/>
    <text x="521" y="260" text-anchor="middle" fill="#111827" font-size="22" font-weight="700">AI 分析</text>
    <text x="521" y="292" text-anchor="middle" fill="#6B7280" font-size="16">Prompt 安全边界</text>
    <text x="521" y="318" text-anchor="middle" fill="#6B7280" font-size="16">DeepSeek JSON Output</text>

    <rect x="702" y="220" width="250" height="120" rx="22" fill="#EEF0FF"/>
    <text x="827" y="260" text-anchor="middle" fill="#111827" font-size="22" font-weight="700">结构校验</text>
    <text x="827" y="292" text-anchor="middle" fill="#6B7280" font-size="16">JSON Schema</text>
    <text x="827" y="318" text-anchor="middle" fill="#6B7280" font-size="16">拒绝缺失或多余字段</text>

    <rect x="1008" y="220" width="182" height="120" rx="22" fill="#EEF0FF"/>
    <text x="1099" y="260" text-anchor="middle" fill="#111827" font-size="22" font-weight="700">报告输出</text>
    <text x="1099" y="292" text-anchor="middle" fill="#6B7280" font-size="16">Markdown</text>
    <text x="1099" y="318" text-anchor="middle" fill="#6B7280" font-size="16">人工复核</text>
  </g>

  <g stroke="#8B8CF6" stroke-width="4" marker-end="url(#arrow2)" stroke-linecap="round">
    <line x1="350" y1="280" x2="386" y2="280"/>
    <line x1="656" y1="280" x2="692" y2="280"/>
    <line x1="962" y1="280" x2="998" y2="280"/>
  </g>

  <g font-family="Segoe UI, Microsoft YaHei, sans-serif">
    <rect x="170" y="410" width="940" height="92" rx="22" fill="#F1F1FF"/>
    <text x="640" y="448" text-anchor="middle" fill="#111827" font-size="22" font-weight="700">报告字段</text>
    <text x="640" y="480" text-anchor="middle" fill="#6B7280" font-size="17">overall_risk · summary · findings · investigation_steps · safe_commands · requires_human_review</text>
  </g>
</svg>
